<svg width="186" height="57" viewBox="0 0 186 57" fill="none" xmlns="http://www.w3.org/2000/svg">
<rect x="1" y="1" width="184" height="55" rx="10" fill="#F5F5F5" stroke="#403F41" stroke-width="2"/>
<path d="M56.9902 18V9.46875H59.3984C60.1406 9.46875 60.7969 9.63281 61.3672 9.96094C61.9375 10.2891 62.377 10.7559 62.6855 11.3613C62.998 11.9668 63.1562 12.6621 63.1602 13.4473V13.9922C63.1602 14.7969 63.0039 15.502 62.6914 16.1074C62.3828 16.7129 61.9395 17.1777 61.3613 17.502C60.7871 17.8262 60.1172 17.9922 59.3516 18H56.9902ZM58.1152 10.3945V17.0801H59.2988C60.166 17.0801 60.8398 16.8105 61.3203 16.2715C61.8047 15.7324 62.0469 14.9648 62.0469 13.9688V13.4707C62.0469 12.502 61.8184 11.75 61.3613 11.2148C60.9082 10.6758 60.2637 10.4023 59.4277 10.3945H58.1152ZM65.333 18H64.2491V11.6602H65.333V18ZM64.1612 9.97852C64.1612 9.80273 64.2139 9.6543 64.3194 9.5332C64.4288 9.41211 64.5889 9.35156 64.7998 9.35156C65.0108 9.35156 65.1709 9.41211 65.2803 9.5332C65.3897 9.6543 65.4444 9.80273 65.4444 9.97852C65.4444 10.1543 65.3897 10.3008 65.2803 10.418C65.1709 10.5352 65.0108 10.5938 64.7998 10.5938C64.5889 10.5938 64.4288 10.5352 64.3194 10.418C64.2139 10.3008 64.1612 10.1543 64.1612 9.97852ZM70.2247 16.3184C70.2247 16.0254 70.1134 15.7988 69.8907 15.6387C69.672 15.4746 69.2872 15.334 68.7364 15.2168C68.1895 15.0996 67.754 14.959 67.4298 14.7949C67.1095 14.6309 66.8712 14.4355 66.7149 14.209C66.5626 13.9824 66.4864 13.7129 66.4864 13.4004C66.4864 12.8809 66.7052 12.4414 67.1427 12.082C67.5841 11.7227 68.1466 11.543 68.8302 11.543C69.5489 11.543 70.1309 11.7285 70.5763 12.0996C71.0255 12.4707 71.2501 12.9453 71.2501 13.5234H70.1602C70.1602 13.2266 70.0333 12.9707 69.7794 12.7559C69.5294 12.541 69.213 12.4336 68.8302 12.4336C68.4356 12.4336 68.127 12.5195 67.9044 12.6914C67.6817 12.8633 67.5704 13.0879 67.5704 13.3652C67.5704 13.627 67.6739 13.8242 67.8809 13.957C68.088 14.0898 68.461 14.2168 69.0001 14.3379C69.543 14.459 69.9825 14.6035 70.3184 14.7715C70.6544 14.9395 70.9024 15.1426 71.0626 15.3809C71.2266 15.6152 71.3087 15.9023 71.3087 16.2422C71.3087 16.8086 71.0821 17.2637 70.629 17.6074C70.1759 17.9473 69.588 18.1172 68.8653 18.1172C68.3575 18.1172 67.9083 18.0273 67.5177 17.8477C67.127 17.668 66.8204 17.418 66.5977 17.0977C66.379 16.7734 66.2696 16.4238 66.2696 16.0488H67.3536C67.3731 16.4121 67.5177 16.7012 67.7872 16.916C68.0606 17.127 68.42 17.2324 68.8653 17.2324C69.2755 17.2324 69.6036 17.1504 69.8497 16.9863C70.0997 16.8184 70.2247 16.5957 70.2247 16.3184ZM77.5363 14.9004C77.5363 15.8652 77.3155 16.6426 76.8741 17.2324C76.4327 17.8223 75.8351 18.1172 75.0812 18.1172C74.3116 18.1172 73.7062 17.873 73.2648 17.3848V20.4375H72.1808V11.6602H73.171L73.2238 12.3633C73.6652 11.8164 74.2784 11.543 75.0636 11.543C75.8253 11.543 76.4269 11.8301 76.8683 12.4043C77.3136 12.9785 77.5363 13.7773 77.5363 14.8008V14.9004ZM76.4523 14.7773C76.4523 14.0625 76.2999 13.498 75.9952 13.084C75.6905 12.6699 75.2726 12.4629 74.7413 12.4629C74.0851 12.4629 73.5929 12.7539 73.2648 13.3359V16.3652C73.589 16.9434 74.0851 17.2324 74.753 17.2324C75.2726 17.2324 75.6847 17.0273 75.9894 16.6172C76.298 16.2031 76.4523 15.5898 76.4523 14.7773ZM78.092 14.7715C78.092 14.1504 78.213 13.5918 78.4552 13.0957C78.7013 12.5996 79.0412 12.2168 79.4748 11.9473C79.9123 11.6777 80.4103 11.543 80.9689 11.543C81.8322 11.543 82.5295 11.8418 83.0607 12.4395C83.5959 13.0371 83.8634 13.832 83.8634 14.8242V14.9004C83.8634 15.5176 83.7443 16.0723 83.506 16.5645C83.2716 17.0527 82.9338 17.4336 82.4923 17.707C82.0548 17.9805 81.5509 18.1172 80.9806 18.1172C80.1213 18.1172 79.424 17.8184 78.8888 17.2207C78.3576 16.623 78.092 15.832 78.092 14.8477V14.7715ZM79.1818 14.9004C79.1818 15.6035 79.3439 16.168 79.6681 16.5938C79.9963 17.0195 80.4338 17.2324 80.9806 17.2324C81.5314 17.2324 81.9689 17.0176 82.2931 16.5879C82.6173 16.1543 82.7795 15.5488 82.7795 14.7715C82.7795 14.0762 82.6134 13.5137 82.2814 13.084C81.9533 12.6504 81.5158 12.4336 80.9689 12.4336C80.4338 12.4336 80.0021 12.6465 79.674 13.0723C79.3459 13.498 79.1818 14.1074 79.1818 14.9004ZM85.7082 11.6602L85.7434 12.457C86.2277 11.8477 86.8605 11.543 87.6418 11.543C88.9816 11.543 89.6574 12.2988 89.6691 13.8105V18H88.5852V13.8047C88.5812 13.3477 88.4758 13.0098 88.2687 12.791C88.0656 12.5723 87.7473 12.4629 87.3137 12.4629C86.9621 12.4629 86.6535 12.5566 86.3879 12.7441C86.1223 12.9316 85.9152 13.1777 85.7668 13.4824V18H84.6828V11.6602H85.7082ZM91.9416 18H90.8518V11.6602H91.9416V18ZM91.9534 9.00586H93.2659L91.6955 10.7285H90.8225L91.9534 9.00586ZM95.2805 16.5293L96.8509 11.6602H97.9583L95.6848 18H94.8587L92.5618 11.6602H93.6692L95.2805 16.5293ZM101.01 18.1172C100.151 18.1172 99.4515 17.8359 98.9124 17.2734C98.3734 16.707 98.1038 15.9512 98.1038 15.0059V14.8066C98.1038 14.1777 98.223 13.6172 98.4613 13.125C98.7034 12.6289 99.0394 12.2422 99.4691 11.9648C99.9027 11.6836 100.371 11.543 100.875 11.543C101.7 11.543 102.34 11.8145 102.797 12.3574C103.254 12.9004 103.483 13.6777 103.483 14.6895V15.1406H99.1878C99.2034 15.7656 99.3851 16.2715 99.7327 16.6582C100.084 17.041 100.53 17.2324 101.069 17.2324C101.451 17.2324 101.776 17.1543 102.041 16.998C102.307 16.8418 102.539 16.6348 102.739 16.377L103.401 16.8926C102.869 17.709 102.073 18.1172 101.01 18.1172ZM100.875 12.4336C100.438 12.4336 100.071 12.5938 99.7738 12.9141C99.4769 13.2305 99.2933 13.6758 99.223 14.25H102.399V14.168C102.368 13.6172 102.219 13.1914 101.953 12.8906C101.688 12.5859 101.328 12.4336 100.875 12.4336ZM105.38 18H104.296V9H105.38V18ZM110.042 11.6602L110.078 12.457C110.562 11.8477 111.195 11.543 111.976 11.543C113.316 11.543 113.992 12.2988 114.003 13.8105V18H112.919V13.8047C112.915 13.3477 112.81 13.0098 112.603 12.791C112.4 12.5723 112.081 12.4629 111.648 12.4629C111.296 12.4629 110.988 12.5566 110.722 12.7441C110.456 12.9316 110.249 13.1777 110.101 13.4824V18H109.017V11.6602H110.042ZM119.012 18C118.95 17.875 118.899 17.6523 118.86 17.332C118.356 17.8555 117.754 18.1172 117.055 18.1172C116.43 18.1172 115.916 17.9414 115.514 17.5898C115.116 17.2344 114.916 16.7852 114.916 16.2422C114.916 15.582 115.166 15.0703 115.666 14.707C116.17 14.3398 116.877 14.1562 117.788 14.1562H118.842V13.6582C118.842 13.2793 118.729 12.9785 118.502 12.7559C118.276 12.5293 117.942 12.416 117.5 12.416C117.114 12.416 116.79 12.5137 116.528 12.709C116.266 12.9043 116.135 13.1406 116.135 13.418H115.045C115.045 13.1016 115.157 12.7969 115.379 12.5039C115.606 12.207 115.911 11.9727 116.293 11.8008C116.68 11.6289 117.104 11.543 117.565 11.543C118.295 11.543 118.868 11.7266 119.282 12.0938C119.696 12.457 119.911 12.959 119.926 13.5996V16.5176C119.926 17.0996 120 17.5625 120.149 17.9062V18H119.012ZM117.213 17.1738C117.553 17.1738 117.875 17.0859 118.18 16.9102C118.485 16.7344 118.706 16.5059 118.842 16.2246V14.9238H117.993C116.665 14.9238 116 15.3125 116 16.0898C116 16.4297 116.114 16.6953 116.34 16.8867C116.567 17.0781 116.858 17.1738 117.213 17.1738Z" fill="#403F41"/>
<path d="M67.1562 38.4844H60.9922L59.8203 42H56.082L62.4336 24.9375H65.6914L72.0781 42H68.3398L67.1562 38.4844ZM61.9414 35.6367H66.207L64.0625 29.25L61.9414 35.6367ZM83.2208 35.7773C83.2208 37.7305 82.7755 39.2969 81.8848 40.4766C81.002 41.6484 79.8067 42.2344 78.2989 42.2344C77.0177 42.2344 75.9825 41.7891 75.1934 40.8984V46.875H71.8067V29.3203H74.9473L75.0645 30.5625C75.8848 29.5781 76.9552 29.0859 78.2755 29.0859C79.838 29.0859 81.0528 29.6641 81.92 30.8203C82.7872 31.9766 83.2208 33.5703 83.2208 35.6016V35.7773ZM79.8341 35.5312C79.8341 34.3516 79.6231 33.4414 79.2013 32.8008C78.7872 32.1602 78.1817 31.8398 77.3848 31.8398C76.3223 31.8398 75.5919 32.2461 75.1934 33.0586V38.25C75.6075 39.0859 76.3458 39.5039 77.4083 39.5039C79.0255 39.5039 79.8341 38.1797 79.8341 35.5312ZM95.6642 35.7773C95.6642 37.7305 95.2189 39.2969 94.3283 40.4766C93.4455 41.6484 92.2502 42.2344 90.7423 42.2344C89.4611 42.2344 88.4259 41.7891 87.6369 40.8984V46.875H84.2502V29.3203H87.3908L87.508 30.5625C88.3283 29.5781 89.3986 29.0859 90.7189 29.0859C92.2814 29.0859 93.4963 29.6641 94.3634 30.8203C95.2306 31.9766 95.6642 33.5703 95.6642 35.6016V35.7773ZM92.2775 35.5312C92.2775 34.3516 92.0666 33.4414 91.6447 32.8008C91.2306 32.1602 90.6252 31.8398 89.8283 31.8398C88.7658 31.8398 88.0353 32.2461 87.6369 33.0586V38.25C88.0509 39.0859 88.7892 39.5039 89.8517 39.5039C91.4689 39.5039 92.2775 38.1797 92.2775 35.5312ZM110.66 37.5234C110.66 36.8594 110.426 36.3516 109.957 36C109.489 35.6406 108.645 35.2656 107.426 34.875C106.207 34.4766 105.243 34.0859 104.532 33.7031C102.594 32.6562 101.625 31.2461 101.625 29.4727C101.625 28.5508 101.883 27.7305 102.399 27.0117C102.922 26.2852 103.668 25.7188 104.637 25.3125C105.614 24.9062 106.707 24.7031 107.918 24.7031C109.137 24.7031 110.223 24.9258 111.176 25.3711C112.129 25.8086 112.868 26.4297 113.391 27.2344C113.922 28.0391 114.188 28.9531 114.188 29.9766H110.672C110.672 29.1953 110.426 28.5898 109.934 28.1602C109.442 27.7227 108.75 27.5039 107.86 27.5039C107 27.5039 106.332 27.6875 105.856 28.0547C105.379 28.4141 105.141 28.8906 105.141 29.4844C105.141 30.0391 105.418 30.5039 105.973 30.8789C106.535 31.2539 107.36 31.6055 108.446 31.9336C110.446 32.5352 111.903 33.2812 112.817 34.1719C113.731 35.0625 114.188 36.1719 114.188 37.5C114.188 38.9766 113.629 40.1367 112.512 40.9805C111.395 41.8164 109.891 42.2344 108 42.2344C106.688 42.2344 105.493 41.9961 104.414 41.5195C103.336 41.0352 102.512 40.375 101.942 39.5391C101.379 38.7031 101.098 37.7344 101.098 36.6328H104.625C104.625 38.5156 105.75 39.457 108 39.457C108.836 39.457 109.489 39.2891 109.957 38.9531C110.426 38.6094 110.66 38.1328 110.66 37.5234ZM119.33 26.2031V29.3203H121.498V31.8047H119.33V38.1328C119.33 38.6016 119.42 38.9375 119.6 39.1406C119.78 39.3438 120.123 39.4453 120.631 39.4453C121.006 39.4453 121.338 39.418 121.627 39.3633V41.9297C120.963 42.1328 120.28 42.2344 119.577 42.2344C117.202 42.2344 115.991 41.0352 115.944 38.6367V31.8047H114.092V29.3203H115.944V26.2031H119.33ZM121.426 35.543C121.426 34.2852 121.668 33.1641 122.153 32.1797C122.637 31.1953 123.332 30.4336 124.239 29.8945C125.153 29.3555 126.211 29.0859 127.415 29.0859C129.125 29.0859 130.52 29.6094 131.598 30.6562C132.684 31.7031 133.29 33.125 133.415 34.9219L133.438 35.7891C133.438 37.7344 132.895 39.2969 131.809 40.4766C130.723 41.6484 129.266 42.2344 127.438 42.2344C125.61 42.2344 124.149 41.6484 123.055 40.4766C121.969 39.3047 121.426 37.7109 121.426 35.6953V35.543ZM124.813 35.7891C124.813 36.9922 125.04 37.9141 125.493 38.5547C125.946 39.1875 126.594 39.5039 127.438 39.5039C128.258 39.5039 128.899 39.1914 129.36 38.5664C129.821 37.9336 130.051 36.9258 130.051 35.543C130.051 34.3633 129.821 33.4492 129.36 32.8008C128.899 32.1523 128.25 31.8281 127.415 31.8281C126.586 31.8281 125.946 32.1523 125.493 32.8008C125.04 33.4414 124.813 34.4375 124.813 35.7891ZM141.569 32.4961C141.108 32.4336 140.702 32.4023 140.35 32.4023C139.069 32.4023 138.229 32.8359 137.831 33.7031V42H134.444V29.3203H137.643L137.737 30.832C138.417 29.668 139.358 29.0859 140.561 29.0859C140.936 29.0859 141.288 29.1367 141.616 29.2383L141.569 32.4961ZM147.731 42.2344C145.872 42.2344 144.356 41.6641 143.184 40.5234C142.02 39.3828 141.438 37.8633 141.438 35.9648V35.6367C141.438 34.3633 141.684 33.2266 142.176 32.2266C142.669 31.2188 143.364 30.4453 144.262 29.9062C145.169 29.3594 146.2 29.0859 147.356 29.0859C149.09 29.0859 150.454 29.6328 151.446 30.7266C152.446 31.8203 152.946 33.3711 152.946 35.3789V36.7617H144.872C144.981 37.5898 145.309 38.2539 145.856 38.7539C146.411 39.2539 147.11 39.5039 147.954 39.5039C149.258 39.5039 150.278 39.0312 151.012 38.0859L152.676 39.9492C152.169 40.668 151.481 41.2305 150.614 41.6367C149.747 42.0352 148.786 42.2344 147.731 42.2344ZM147.344 31.8281C146.673 31.8281 146.126 32.0547 145.704 32.5078C145.29 32.9609 145.024 33.6094 144.907 34.4531H149.618V34.1836C149.602 33.4336 149.399 32.8555 149.008 32.4492C148.618 32.0352 148.063 31.8281 147.344 31.8281Z" fill="#403F41"/>
<path d="M41.6785 20.742C41.5309 20.8344 38.0173 22.7844 38.0173 27.108C38.1829 32.0388 42.4513 33.768 42.5245 33.768C42.4513 33.8604 41.8801 36.1236 40.1881 38.496C38.8453 40.5396 37.3549 42.6 35.0917 42.6C32.9389 42.6 32.1661 41.238 29.6821 41.238C27.0145 41.238 26.2597 42.6 24.2173 42.6C21.9541 42.6 20.3533 40.4292 18.9373 38.4048C17.0977 35.7552 15.5341 31.5972 15.4789 27.6048C15.4417 25.4892 15.8473 23.4096 16.8769 21.6432C18.3301 19.1772 20.9245 17.5032 23.7577 17.448C25.9285 17.3748 27.8605 18.9384 29.1853 18.9384C30.4549 18.9384 32.8285 17.448 35.5141 17.448C36.6733 17.4492 39.7645 17.7984 41.6785 20.742ZM29.0017 17.0256C28.6153 15.0936 29.6821 13.1616 30.6757 11.9292C31.9453 10.4388 33.9505 9.42719 35.6797 9.42719C35.7901 11.3592 35.0905 13.254 33.8401 14.634C32.7181 16.1244 30.7861 17.2464 29.0017 17.0256Z" fill="#403F41"/>
</svg>
