<svg width="186" height="57" viewBox="0 0 186 57" fill="none" xmlns="http://www.w3.org/2000/svg">
<rect x="1" y="1" width="184" height="55" rx="10" fill="#F2F2F2" stroke="#403F41" stroke-width="2"/>
<path d="M56.9902 18V9.46875H59.3984C60.1406 9.46875 60.7969 9.63281 61.3672 9.96094C61.9375 10.2891 62.377 10.7559 62.6855 11.3613C62.998 11.9668 63.1562 12.6621 63.1602 13.4473V13.9922C63.1602 14.7969 63.0039 15.502 62.6914 16.1074C62.3828 16.7129 61.9395 17.1777 61.3613 17.502C60.7871 17.8262 60.1172 17.9922 59.3516 18H56.9902ZM58.1152 10.3945V17.0801H59.2988C60.166 17.0801 60.8398 16.8105 61.3203 16.2715C61.8047 15.7324 62.0469 14.9648 62.0469 13.9688V13.4707C62.0469 12.502 61.8184 11.75 61.3613 11.2148C60.9082 10.6758 60.2637 10.4023 59.4277 10.3945H58.1152ZM65.333 18H64.2491V11.6602H65.333V18ZM64.1612 9.97852C64.1612 9.80273 64.2139 9.6543 64.3194 9.5332C64.4288 9.41211 64.5889 9.35156 64.7998 9.35156C65.0108 9.35156 65.1709 9.41211 65.2803 9.5332C65.3897 9.6543 65.4444 9.80273 65.4444 9.97852C65.4444 10.1543 65.3897 10.3008 65.2803 10.418C65.1709 10.5352 65.0108 10.5938 64.7998 10.5938C64.5889 10.5938 64.4288 10.5352 64.3194 10.418C64.2139 10.3008 64.1612 10.1543 64.1612 9.97852ZM70.2247 16.3184C70.2247 16.0254 70.1134 15.7988 69.8907 15.6387C69.672 15.4746 69.2872 15.334 68.7364 15.2168C68.1895 15.0996 67.754 14.959 67.4298 14.7949C67.1095 14.6309 66.8712 14.4355 66.7149 14.209C66.5626 13.9824 66.4864 13.7129 66.4864 13.4004C66.4864 12.8809 66.7052 12.4414 67.1427 12.082C67.5841 11.7227 68.1466 11.543 68.8302 11.543C69.5489 11.543 70.1309 11.7285 70.5763 12.0996C71.0255 12.4707 71.2501 12.9453 71.2501 13.5234H70.1602C70.1602 13.2266 70.0333 12.9707 69.7794 12.7559C69.5294 12.541 69.213 12.4336 68.8302 12.4336C68.4356 12.4336 68.127 12.5195 67.9044 12.6914C67.6817 12.8633 67.5704 13.0879 67.5704 13.3652C67.5704 13.627 67.6739 13.8242 67.8809 13.957C68.088 14.0898 68.461 14.2168 69.0001 14.3379C69.543 14.459 69.9825 14.6035 70.3184 14.7715C70.6544 14.9395 70.9024 15.1426 71.0626 15.3809C71.2266 15.6152 71.3087 15.9023 71.3087 16.2422C71.3087 16.8086 71.0821 17.2637 70.629 17.6074C70.1759 17.9473 69.588 18.1172 68.8653 18.1172C68.3575 18.1172 67.9083 18.0273 67.5177 17.8477C67.127 17.668 66.8204 17.418 66.5977 17.0977C66.379 16.7734 66.2696 16.4238 66.2696 16.0488H67.3536C67.3731 16.4121 67.5177 16.7012 67.7872 16.916C68.0606 17.127 68.42 17.2324 68.8653 17.2324C69.2755 17.2324 69.6036 17.1504 69.8497 16.9863C70.0997 16.8184 70.2247 16.5957 70.2247 16.3184ZM77.5363 14.9004C77.5363 15.8652 77.3155 16.6426 76.8741 17.2324C76.4327 17.8223 75.8351 18.1172 75.0812 18.1172C74.3116 18.1172 73.7062 17.873 73.2648 17.3848V20.4375H72.1808V11.6602H73.171L73.2238 12.3633C73.6652 11.8164 74.2784 11.543 75.0636 11.543C75.8253 11.543 76.4269 11.8301 76.8683 12.4043C77.3136 12.9785 77.5363 13.7773 77.5363 14.8008V14.9004ZM76.4523 14.7773C76.4523 14.0625 76.2999 13.498 75.9952 13.084C75.6905 12.6699 75.2726 12.4629 74.7413 12.4629C74.0851 12.4629 73.5929 12.7539 73.2648 13.3359V16.3652C73.589 16.9434 74.0851 17.2324 74.753 17.2324C75.2726 17.2324 75.6847 17.0273 75.9894 16.6172C76.298 16.2031 76.4523 15.5898 76.4523 14.7773ZM78.092 14.7715C78.092 14.1504 78.213 13.5918 78.4552 13.0957C78.7013 12.5996 79.0412 12.2168 79.4748 11.9473C79.9123 11.6777 80.4103 11.543 80.9689 11.543C81.8322 11.543 82.5295 11.8418 83.0607 12.4395C83.5959 13.0371 83.8634 13.832 83.8634 14.8242V14.9004C83.8634 15.5176 83.7443 16.0723 83.506 16.5645C83.2716 17.0527 82.9338 17.4336 82.4923 17.707C82.0548 17.9805 81.5509 18.1172 80.9806 18.1172C80.1213 18.1172 79.424 17.8184 78.8888 17.2207C78.3576 16.623 78.092 15.832 78.092 14.8477V14.7715ZM79.1818 14.9004C79.1818 15.6035 79.3439 16.168 79.6681 16.5938C79.9963 17.0195 80.4338 17.2324 80.9806 17.2324C81.5314 17.2324 81.9689 17.0176 82.2931 16.5879C82.6173 16.1543 82.7795 15.5488 82.7795 14.7715C82.7795 14.0762 82.6134 13.5137 82.2814 13.084C81.9533 12.6504 81.5158 12.4336 80.9689 12.4336C80.4338 12.4336 80.0021 12.6465 79.674 13.0723C79.3459 13.498 79.1818 14.1074 79.1818 14.9004ZM85.7082 11.6602L85.7434 12.457C86.2277 11.8477 86.8605 11.543 87.6418 11.543C88.9816 11.543 89.6574 12.2988 89.6691 13.8105V18H88.5852V13.8047C88.5812 13.3477 88.4758 13.0098 88.2687 12.791C88.0656 12.5723 87.7473 12.4629 87.3137 12.4629C86.9621 12.4629 86.6535 12.5566 86.3879 12.7441C86.1223 12.9316 85.9152 13.1777 85.7668 13.4824V18H84.6828V11.6602H85.7082ZM91.9416 18H90.8518V11.6602H91.9416V18ZM91.9534 9.00586H93.2659L91.6955 10.7285H90.8225L91.9534 9.00586ZM95.2805 16.5293L96.8509 11.6602H97.9583L95.6848 18H94.8587L92.5618 11.6602H93.6692L95.2805 16.5293ZM101.01 18.1172C100.151 18.1172 99.4515 17.8359 98.9124 17.2734C98.3734 16.707 98.1038 15.9512 98.1038 15.0059V14.8066C98.1038 14.1777 98.223 13.6172 98.4613 13.125C98.7034 12.6289 99.0394 12.2422 99.4691 11.9648C99.9027 11.6836 100.371 11.543 100.875 11.543C101.7 11.543 102.34 11.8145 102.797 12.3574C103.254 12.9004 103.483 13.6777 103.483 14.6895V15.1406H99.1878C99.2034 15.7656 99.3851 16.2715 99.7327 16.6582C100.084 17.041 100.53 17.2324 101.069 17.2324C101.451 17.2324 101.776 17.1543 102.041 16.998C102.307 16.8418 102.539 16.6348 102.739 16.377L103.401 16.8926C102.869 17.709 102.073 18.1172 101.01 18.1172ZM100.875 12.4336C100.438 12.4336 100.071 12.5938 99.7738 12.9141C99.4769 13.2305 99.2933 13.6758 99.223 14.25H102.399V14.168C102.368 13.6172 102.219 13.1914 101.953 12.8906C101.688 12.5859 101.328 12.4336 100.875 12.4336ZM105.38 18H104.296V9H105.38V18ZM110.042 11.6602L110.078 12.457C110.562 11.8477 111.195 11.543 111.976 11.543C113.316 11.543 113.992 12.2988 114.003 13.8105V18H112.919V13.8047C112.915 13.3477 112.81 13.0098 112.603 12.791C112.4 12.5723 112.081 12.4629 111.648 12.4629C111.296 12.4629 110.988 12.5566 110.722 12.7441C110.456 12.9316 110.249 13.1777 110.101 13.4824V18H109.017V11.6602H110.042ZM119.012 18C118.95 17.875 118.899 17.6523 118.86 17.332C118.356 17.8555 117.754 18.1172 117.055 18.1172C116.43 18.1172 115.916 17.9414 115.514 17.5898C115.116 17.2344 114.916 16.7852 114.916 16.2422C114.916 15.582 115.166 15.0703 115.666 14.707C116.17 14.3398 116.877 14.1562 117.788 14.1562H118.842V13.6582C118.842 13.2793 118.729 12.9785 118.502 12.7559C118.276 12.5293 117.942 12.416 117.5 12.416C117.114 12.416 116.79 12.5137 116.528 12.709C116.266 12.9043 116.135 13.1406 116.135 13.418H115.045C115.045 13.1016 115.157 12.7969 115.379 12.5039C115.606 12.207 115.911 11.9727 116.293 11.8008C116.68 11.6289 117.104 11.543 117.565 11.543C118.295 11.543 118.868 11.7266 119.282 12.0938C119.696 12.457 119.911 12.959 119.926 13.5996V16.5176C119.926 17.0996 120 17.5625 120.149 17.9062V18H119.012ZM117.213 17.1738C117.553 17.1738 117.875 17.0859 118.18 16.9102C118.485 16.7344 118.706 16.5059 118.842 16.2246V14.9238H117.993C116.665 14.9238 116 15.3125 116 16.0898C116 16.4297 116.114 16.6953 116.34 16.8867C116.567 17.0781 116.858 17.1738 117.213 17.1738Z" fill="#403F41"/>
<path d="M71.0234 39.8438C70.3906 40.6016 69.4961 41.1914 68.3398 41.6133C67.1836 42.0273 65.9023 42.2344 64.4961 42.2344C63.0195 42.2344 61.7227 41.9141 60.6055 41.2734C59.4961 40.625 58.6367 39.6875 58.0273 38.4609C57.4258 37.2344 57.1172 35.793 57.1016 34.1367V32.9766C57.1016 31.2734 57.3867 29.8008 57.957 28.5586C58.5352 27.3086 59.3633 26.3555 60.4414 25.6992C61.5273 25.0352 62.7969 24.7031 64.25 24.7031C66.2734 24.7031 67.8555 25.1875 68.9961 26.1562C70.1367 27.1172 70.8125 28.5195 71.0234 30.3633H67.6016C67.4453 29.3867 67.0977 28.6719 66.5586 28.2188C66.0273 27.7656 65.293 27.5391 64.3555 27.5391C63.1602 27.5391 62.25 27.9883 61.625 28.8867C61 29.7852 60.6836 31.1211 60.6758 32.8945V33.9844C60.6758 35.7734 61.0156 37.125 61.6953 38.0391C62.375 38.9531 63.3711 39.4102 64.6836 39.4102C66.0039 39.4102 66.9453 39.1289 67.5078 38.5664V35.625H64.3086V33.0352H71.0234V39.8438ZM72.0528 35.543C72.0528 34.2852 72.295 33.1641 72.7794 32.1797C73.2638 31.1953 73.9591 30.4336 74.8653 29.8945C75.7794 29.3555 76.838 29.0859 78.0411 29.0859C79.752 29.0859 81.1466 29.6094 82.2247 30.6562C83.3106 31.7031 83.9161 33.125 84.0411 34.9219L84.0645 35.7891C84.0645 37.7344 83.5216 39.2969 82.4356 40.4766C81.3497 41.6484 79.8927 42.2344 78.0645 42.2344C76.2364 42.2344 74.7755 41.6484 73.6817 40.4766C72.5958 39.3047 72.0528 37.7109 72.0528 35.6953V35.543ZM75.4395 35.7891C75.4395 36.9922 75.6661 37.9141 76.1192 38.5547C76.5723 39.1875 77.2208 39.5039 78.0645 39.5039C78.8848 39.5039 79.5255 39.1914 79.9864 38.5664C80.4473 37.9336 80.6778 36.9258 80.6778 35.543C80.6778 34.3633 80.4473 33.4492 79.9864 32.8008C79.5255 32.1523 78.877 31.8281 78.0411 31.8281C77.213 31.8281 76.5723 32.1523 76.1192 32.8008C75.6661 33.4414 75.4395 34.4375 75.4395 35.7891ZM84.5431 35.543C84.5431 34.2852 84.7853 33.1641 85.2697 32.1797C85.7541 31.1953 86.4494 30.4336 87.3556 29.8945C88.2697 29.3555 89.3283 29.0859 90.5314 29.0859C92.2423 29.0859 93.6369 29.6094 94.715 30.6562C95.8009 31.7031 96.4064 33.125 96.5314 34.9219L96.5548 35.7891C96.5548 37.7344 96.0119 39.2969 94.9259 40.4766C93.84 41.6484 92.383 42.2344 90.5548 42.2344C88.7267 42.2344 87.2658 41.6484 86.172 40.4766C85.0861 39.3047 84.5431 37.7109 84.5431 35.6953V35.543ZM87.9298 35.7891C87.9298 36.9922 88.1564 37.9141 88.6095 38.5547C89.0627 39.1875 89.7111 39.5039 90.5548 39.5039C91.3752 39.5039 92.0158 39.1914 92.4767 38.5664C92.9377 37.9336 93.1681 36.9258 93.1681 35.543C93.1681 34.3633 92.9377 33.4492 92.4767 32.8008C92.0158 32.1523 91.3673 31.8281 90.5314 31.8281C89.7033 31.8281 89.0627 32.1523 88.6095 32.8008C88.1564 33.4414 87.9298 34.4375 87.9298 35.7891ZM97.0686 35.5664C97.0686 33.6211 97.5295 32.0547 98.4514 30.8672C99.3811 29.6797 100.631 29.0859 102.201 29.0859C103.592 29.0859 104.674 29.5625 105.447 30.5156L105.588 29.3203H108.658V41.5781C108.658 42.6875 108.405 43.6523 107.897 44.4727C107.397 45.293 106.69 45.918 105.776 46.3477C104.862 46.7773 103.791 46.9922 102.565 46.9922C101.635 46.9922 100.729 46.8047 99.8459 46.4297C98.9631 46.0625 98.2952 45.5859 97.842 45L99.342 42.9375C100.186 43.8828 101.209 44.3555 102.412 44.3555C103.311 44.3555 104.01 44.1133 104.51 43.6289C105.01 43.1523 105.26 42.4727 105.26 41.5898V40.9102C104.479 41.793 103.451 42.2344 102.178 42.2344C100.655 42.2344 99.4202 41.6406 98.4748 40.4531C97.5373 39.2578 97.0686 37.6758 97.0686 35.707V35.5664ZM100.455 35.8125C100.455 36.9609 100.686 37.8633 101.147 38.5195C101.608 39.168 102.24 39.4922 103.045 39.4922C104.076 39.4922 104.815 39.1055 105.26 38.332V33C104.807 32.2266 104.076 31.8398 103.069 31.8398C102.256 31.8398 101.615 32.1719 101.147 32.8359C100.686 33.5 100.455 34.4922 100.455 35.8125ZM113.766 42H110.368V24H113.766V42ZM121.323 42.2344C119.463 42.2344 117.948 41.6641 116.776 40.5234C115.612 39.3828 115.03 37.8633 115.03 35.9648V35.6367C115.03 34.3633 115.276 33.2266 115.768 32.2266C116.26 31.2188 116.955 30.4453 117.854 29.9062C118.76 29.3594 119.791 29.0859 120.948 29.0859C122.682 29.0859 124.045 29.6328 125.037 30.7266C126.037 31.8203 126.537 33.3711 126.537 35.3789V36.7617H118.463C118.573 37.5898 118.901 38.2539 119.448 38.7539C120.002 39.2539 120.702 39.5039 121.545 39.5039C122.85 39.5039 123.87 39.0312 124.604 38.0859L126.268 39.9492C125.76 40.668 125.073 41.2305 124.205 41.6367C123.338 42.0352 122.377 42.2344 121.323 42.2344ZM120.936 31.8281C120.264 31.8281 119.717 32.0547 119.295 32.5078C118.881 32.9609 118.616 33.6094 118.498 34.4531H123.209V34.1836C123.194 33.4336 122.991 32.8555 122.6 32.4492C122.209 32.0352 121.655 31.8281 120.936 31.8281ZM136.026 35.9883V42H132.51V24.9375H139.167C140.448 24.9375 141.573 25.1719 142.542 25.6406C143.518 26.1094 144.268 26.7773 144.792 27.6445C145.315 28.5039 145.577 29.4844 145.577 30.5859C145.577 32.2578 145.003 33.5781 143.854 34.5469C142.713 35.5078 141.131 35.9883 139.108 35.9883H136.026ZM136.026 33.1406H139.167C140.096 33.1406 140.803 32.9219 141.288 32.4844C141.78 32.0469 142.026 31.4219 142.026 30.6094C142.026 29.7734 141.78 29.0977 141.288 28.582C140.795 28.0664 140.116 27.8008 139.249 27.7852H136.026V33.1406ZM150.274 42H146.876V24H150.274V42ZM159.342 42C159.186 41.6953 159.073 41.3164 159.003 40.8633C158.182 41.7773 157.116 42.2344 155.803 42.2344C154.561 42.2344 153.53 41.875 152.71 41.1562C151.897 40.4375 151.491 39.5312 151.491 38.4375C151.491 37.0938 151.987 36.0625 152.979 35.3438C153.979 34.625 155.421 34.2617 157.303 34.2539H158.862V33.5273C158.862 32.9414 158.71 32.4727 158.405 32.1211C158.108 31.7695 157.635 31.5938 156.987 31.5938C156.417 31.5938 155.967 31.7305 155.639 32.0039C155.319 32.2773 155.159 32.6523 155.159 33.1289H151.772C151.772 32.3945 151.999 31.7148 152.452 31.0898C152.905 30.4648 153.546 29.9766 154.374 29.625C155.202 29.2656 156.132 29.0859 157.163 29.0859C158.725 29.0859 159.964 29.4805 160.878 30.2695C161.8 31.0508 162.26 32.1523 162.26 33.5742V39.0703C162.268 40.2734 162.436 41.1836 162.764 41.8008V42H159.342ZM156.542 39.6445C157.042 39.6445 157.503 39.5352 157.925 39.3164C158.346 39.0898 158.659 38.7891 158.862 38.4141V36.2344H157.596C155.901 36.2344 154.999 36.8203 154.889 37.9922L154.878 38.1914C154.878 38.6133 155.026 38.9609 155.323 39.2344C155.62 39.5078 156.026 39.6445 156.542 39.6445ZM168.329 37.207L170.673 29.3203H174.305L169.208 43.9688L168.927 44.6367C168.169 46.293 166.919 47.1211 165.177 47.1211C164.684 47.1211 164.184 47.0469 163.677 46.8984V44.332L164.192 44.3438C164.833 44.3438 165.309 44.2461 165.622 44.0508C165.942 43.8555 166.192 43.5312 166.372 43.0781L166.77 42.0352L162.329 29.3203H165.973L168.329 37.207Z" fill="#403F41"/>
<path d="M18.4184 13.3883L32.6002 27.5674L36.2598 23.9079C31.2591 20.8739 24.5615 16.8038 21.5494 14.9738L19.5314 13.7513C19.1747 13.534 18.7928 13.417 18.4184 13.3883ZM16.2536 15.0859C16.2249 15.2417 16.2002 15.3983 16.2002 15.5664V43.5884C16.2002 43.7059 16.2238 43.8153 16.2402 43.9274L30.6676 29.5L16.2536 15.0859ZM38.6648 25.368L34.5327 29.5L38.5927 33.56C40.7438 32.2562 42.2337 31.3508 42.3991 31.251C43.1303 30.8041 43.5432 30.1299 43.5309 29.3932C43.5199 28.6703 43.1069 28.0239 42.4044 27.6262C42.2473 27.536 40.7776 26.6485 38.6648 25.368ZM32.6002 31.4325L18.4611 45.5717C18.7358 45.5238 19.0101 45.4419 19.2725 45.2834C19.6361 45.062 29.4569 39.1036 36.1877 35.02L32.6002 31.4325Z" fill="#403F41"/>
</svg>
