<?xml version="1.0" encoding="UTF-8" standalone="no"?>
<!DOCTYPE svg PUBLIC "-//W3C//DTD SVG 1.1//EN" "http://www.w3.org/Graphics/SVG/1.1/DTD/svg11.dtd">
<svg width="100%" height="100%" viewBox="0 0 3508 2481" version="1.1" xmlns="http://www.w3.org/2000/svg" xmlns:xlink="http://www.w3.org/1999/xlink" xml:space="preserve" xmlns:serif="http://www.serif.com/" style="fill-rule:evenodd;clip-rule:evenodd;stroke-linejoin:round;stroke-miterlimit:2;">
    <g id="Page-2" serif:id="Page 2" transform="matrix(4.16667,0,0,4.16667,0,0)">
        <rect x="0" y="0" width="841.89" height="595.276" style="fill:none;"/>
        <clipPath id="_clip1">
            <rect x="0" y="0" width="841.89" height="595.276"/>
        </clipPath>
        <g clip-path="url(#_clip1)">
            <g id="Camada-1" serif:id="Camada 1">
                <g transform="matrix(1.56375,0,0,1.56375,102.718,382.11)">
                    <path d="M0,56.934L-13.597,56.934L-13.597,28.552L-28.467,56.934L-37.135,56.934L-52.091,28.382L-52.091,56.934L-65.687,56.934L-65.687,0L-51.921,0L-32.801,35.265L-13.682,0L0,0L0,56.934Z" style="fill:white;fill-rule:nonzero;"/>
                </g>
                <g transform="matrix(1.56375,0,0,1.56375,161.976,425.495)">
                    <path d="M0,15.806C2.039,13.739 3.06,11.09 3.06,7.861C3.06,4.631 2.025,1.983 -0.042,-0.085C-2.11,-2.152 -4.504,-3.186 -7.223,-3.186C-10.056,-3.186 -12.52,-2.152 -14.616,-0.085C-16.712,1.983 -17.76,4.631 -17.76,7.861C-17.76,11.09 -16.727,13.739 -14.658,15.806C-12.591,17.873 -10.112,18.908 -7.223,18.908C-4.447,18.908 -2.039,17.873 0,15.806M9.348,-8.285C13.88,-4.092 16.146,1.289 16.146,7.861C16.146,14.489 13.88,19.899 9.348,24.091C4.815,28.284 -0.708,30.379 -7.223,30.379C-13.851,30.379 -19.445,28.284 -24.006,24.091C-28.566,19.899 -30.847,14.489 -30.847,7.861C-30.847,1.289 -28.566,-4.092 -24.006,-8.285C-19.445,-12.477 -13.851,-14.573 -7.223,-14.573C-0.708,-14.573 4.815,-12.477 9.348,-8.285" style="fill:white;fill-rule:nonzero;"/>
                </g>
                <g transform="matrix(1.56375,0,0,1.56375,242.298,398.387)">
                    <path d="M0,33.141C2.067,31.074 3.102,28.425 3.102,25.196C3.102,22.023 2.067,19.389 0,17.293C-2.068,15.197 -4.519,14.149 -7.351,14.149C-10.354,14.149 -12.817,15.183 -14.744,17.25C-16.67,19.318 -17.633,21.966 -17.633,25.196C-17.633,28.482 -16.67,31.144 -14.744,33.184C-12.817,35.223 -10.354,36.243 -7.351,36.243C-4.519,36.243 -2.068,35.208 0,33.141M16.697,46.525L3.102,46.525L3.102,43.125C-0.354,46.242 -4.773,47.799 -10.155,47.799C-15.934,47.799 -20.848,45.689 -24.898,41.469C-28.949,37.248 -30.975,31.824 -30.975,25.196C-30.975,18.624 -28.949,13.214 -24.898,8.965C-20.848,4.716 -15.934,2.592 -10.155,2.592C-4.773,2.592 -0.354,4.15 3.102,7.266L3.102,-14.658L16.697,-14.658L16.697,46.525Z" style="fill:white;fill-rule:nonzero;"/>
                </g>
                <g transform="matrix(1.56375,0,0,1.56375,327.869,425.362)">
                    <path d="M0,15.891C2.067,13.824 3.102,11.175 3.102,7.946C3.102,4.773 2.067,2.139 0,0.043C-2.068,-2.053 -4.519,-3.101 -7.351,-3.101C-10.354,-3.101 -12.817,-2.067 -14.744,0C-16.67,2.068 -17.633,4.716 -17.633,7.946C-17.633,11.232 -16.67,13.894 -14.744,15.934C-12.817,17.973 -10.354,18.993 -7.351,18.993C-4.519,18.993 -2.068,17.958 0,15.891M16.697,29.275L3.102,29.275L3.102,25.875C-0.354,28.992 -4.773,30.549 -10.155,30.549C-15.934,30.549 -20.848,28.439 -24.898,24.219C-28.949,19.998 -30.975,14.574 -30.975,7.946C-30.975,1.374 -28.949,-4.036 -24.898,-8.285C-20.848,-12.534 -15.934,-14.658 -10.155,-14.658C-4.773,-14.658 -0.354,-13.1 3.102,-9.984L3.102,-13.383L16.697,-13.383L16.697,29.275Z" style="fill:white;fill-rule:nonzero;"/>
                </g>
                <g transform="matrix(1.56375,0,0,1.56375,489.378,415.465)">
                    <path d="M0,14.275C-1.303,21.299 -4.561,26.823 -9.771,30.845C-14.983,34.868 -21.301,36.879 -28.722,36.879C-37.162,36.879 -44.314,34.018 -50.178,28.296C-56.041,22.575 -58.973,15.521 -58.973,7.137C-58.973,-1.191 -56.041,-8.23 -50.178,-13.979C-44.314,-19.729 -37.162,-22.604 -28.722,-22.604C-21.584,-22.604 -15.366,-20.621 -10.069,-16.656C-4.772,-12.691 -1.444,-7.394 -0.085,-0.766L-13.851,2.463C-14.7,-1.559 -16.442,-4.604 -19.077,-6.671C-21.711,-8.74 -24.926,-9.773 -28.722,-9.773C-33.254,-9.773 -37.092,-8.159 -40.236,-4.929C-43.38,-1.701 -44.952,2.322 -44.952,7.137C-44.952,11.953 -43.38,15.989 -40.236,19.246C-37.092,22.504 -33.254,24.132 -28.722,24.132C-24.982,24.132 -21.796,23.07 -19.162,20.946C-16.527,18.821 -14.729,15.691 -13.766,11.556L0,14.275Z" style="fill:white;fill-rule:nonzero;"/>
                </g>
                <g transform="matrix(1.56375,0,0,1.56375,524.054,453.069)">
                    <path d="M0,-19.545C-1.7,-18.356 -2.861,-16.712 -3.484,-14.616L14.105,-14.616C13.482,-16.825 12.406,-18.497 10.877,-19.63C9.347,-20.763 7.562,-21.329 5.523,-21.329C3.54,-21.329 1.699,-20.734 0,-19.545M27.532,-6.288L-3.739,-6.288C-3.173,-3.739 -2.068,-1.728 -0.426,-0.255C1.218,1.218 3.172,1.954 5.438,1.954C9.687,1.954 12.718,0.311 14.53,-2.975L26.597,-0.51C24.784,3.909 22.051,7.237 18.396,9.475C14.743,11.713 10.423,12.831 5.438,12.831C-0.851,12.831 -6.176,10.721 -10.537,6.501C-14.899,2.28 -17.081,-3.145 -17.081,-9.773C-17.081,-16.344 -14.899,-21.754 -10.537,-26.003C-6.176,-30.252 -0.822,-32.376 5.523,-32.376C11.698,-32.376 16.882,-30.309 21.073,-26.173C25.266,-22.037 27.419,-16.57 27.532,-9.773L27.532,-6.288Z" style="fill:white;fill-rule:nonzero;"/>
                </g>
                <g transform="matrix(1.56375,0,0,1.56375,638.659,463.5)">
                    <path d="M0,-34.161C3.03,-30.903 4.546,-26.612 4.546,-21.287L4.546,4.886L-8.966,4.886L-8.966,-18.397C-8.966,-20.89 -9.646,-22.916 -11.005,-24.473C-12.364,-26.031 -14.121,-26.81 -16.273,-26.81C-19.049,-26.81 -21.216,-25.833 -22.774,-23.879C-24.332,-21.924 -25.111,-18.935 -25.111,-14.914L-25.111,4.886L-38.707,4.886L-38.707,-37.772L-25.111,-37.772L-25.111,-33.693C-21.712,-37.263 -17.35,-39.047 -12.024,-39.047C-7.039,-39.047 -3.031,-37.418 0,-34.161" style="fill:white;fill-rule:nonzero;"/>
                </g>
                <g transform="matrix(1.56375,0,0,1.56375,709.68,389.685)">
                    <path d="M0,50.221C-3.909,52.317 -7.79,53.365 -11.642,53.365C-17.023,53.365 -21.202,51.92 -24.176,49.031C-27.15,46.142 -28.638,41.921 -28.638,36.369L-28.638,20.224L-36.37,20.224L-36.37,9.432L-28.638,9.432L-28.638,-3.144L-15.041,-3.144L-15.041,9.432L-2.465,9.432L-2.465,20.224L-15.041,20.224L-15.041,35.01C-15.041,39.146 -13.144,41.213 -9.348,41.213C-7.195,41.213 -5.127,40.647 -3.145,39.514L0,50.221Z" style="fill:white;fill-rule:nonzero;"/>
                </g>
                <g transform="matrix(1.56375,0,0,1.56375,738.779,453.069)">
                    <path d="M0,-19.545C-1.7,-18.356 -2.861,-16.712 -3.484,-14.616L14.105,-14.616C13.482,-16.825 12.406,-18.497 10.877,-19.63C9.347,-20.763 7.562,-21.329 5.523,-21.329C3.54,-21.329 1.699,-20.734 0,-19.545M27.532,-6.288L-3.739,-6.288C-3.173,-3.739 -2.068,-1.728 -0.426,-0.255C1.218,1.218 3.172,1.954 5.438,1.954C9.687,1.954 12.718,0.311 14.53,-2.975L26.597,-0.51C24.784,3.909 22.051,7.237 18.396,9.475C14.743,11.713 10.423,12.831 5.438,12.831C-0.851,12.831 -6.176,10.721 -10.537,6.501C-14.899,2.28 -17.081,-3.145 -17.081,-9.773C-17.081,-16.344 -14.899,-21.754 -10.537,-26.003C-6.176,-30.252 -0.822,-32.376 5.523,-32.376C11.698,-32.376 16.882,-30.309 21.073,-26.173C25.266,-22.037 27.419,-16.57 27.532,-9.773L27.532,-6.288Z" style="fill:white;fill-rule:nonzero;"/>
                </g>
                <g transform="matrix(1.56375,0,0,1.56375,841.89,470.609)">
                    <path d="M0,-42.573L-0.595,-28.976L-3.06,-28.976C-12.86,-28.976 -17.761,-23.651 -17.761,-13.001L-17.761,0.34L-31.356,0.34L-31.356,-42.318L-17.761,-42.318L-17.761,-34.16C-14.248,-39.995 -9.348,-42.913 -3.06,-42.913C-1.927,-42.913 -0.906,-42.8 0,-42.573" style="fill:white;fill-rule:nonzero;"/>
                </g>
                <g transform="matrix(1.56375,0,0,1.56375,303.727,0.00031275)">
                    <path d="M0,143.667C5.376,143.12 10.756,142.862 16.123,142.882C66.182,122.76 103.246,77.123 111.195,22.065L72.966,0L35.199,21.798C42.631,34.731 46.894,49.741 46.894,65.734C46.894,99.513 27.89,128.841 0,143.667" style="fill:rgb(40,122,168);fill-rule:nonzero;"/>
                </g>
                <g transform="matrix(1.56375,0,0,1.56375,425.852,170.4)">
                    <path d="M0,-74.271C0,-86.338 -1.797,-97.985 -5.125,-108.965L-5.132,-108.969L-42.899,-87.171C-35.467,-74.238 -31.204,-59.228 -31.204,-43.235C-31.204,-9.456 -50.208,19.873 -78.098,34.698C-75.105,34.394 -72.11,34.188 -69.117,34.061C-28.301,15.075 0,-26.29 0,-74.271" style="fill:rgb(238,128,42);fill-rule:nonzero;"/>
                </g>
                <g transform="matrix(1.56375,0,0,1.56375,459.015,344.082)">
                    <path d="M0,-157.098C-2.214,-152.169 -4.681,-147.38 -7.382,-142.743C-14.985,-89.329 6.006,-34.412 49.713,0L87.936,-22.074L87.942,-65.68C73.026,-65.71 57.896,-69.524 44.045,-77.52C14.792,-94.41 -1.106,-125.532 0,-157.098" style="fill:rgb(234,185,52);fill-rule:nonzero;"/>
                </g>
                <g transform="matrix(1.56375,0,0,1.56375,545.523,118.604)">
                    <path d="M0,109.212C10.451,115.246 21.435,119.513 32.609,122.12L32.615,122.117L32.621,78.511C17.705,78.48 2.575,74.667 -11.276,66.67C-40.529,49.781 -56.427,18.659 -55.321,-12.908C-56.554,-10.163 -57.873,-7.467 -59.26,-4.811C-63.225,40.03 -41.553,85.221 0,109.212" style="fill:rgb(238,67,48);fill-rule:nonzero;"/>
                </g>
                <g transform="matrix(1.56375,0,0,1.56375,490.599,255.838)">
                    <path d="M0,25.691C-3.161,21.309 -6.076,16.779 -8.741,12.121C-51.197,-21.171 -109.252,-30.451 -160.908,-9.806L-160.902,34.334L-123.141,56.142C-115.657,43.239 -104.789,32.043 -90.939,24.046C-61.686,7.157 -26.784,8.95 0,25.691" style="fill:rgb(21,166,100);fill-rule:nonzero;"/>
                </g>
                <g transform="matrix(1.56375,0,0,1.56375,281.965,306.113)">
                    <path d="M0,-19.61C-10.451,-13.576 -19.638,-6.197 -27.483,2.176L-27.483,2.183L10.278,23.991C17.762,11.089 28.63,-0.108 42.48,-8.104C71.733,-24.994 106.635,-23.2 133.419,-6.46C131.659,-8.9 129.983,-11.391 128.376,-13.919C91.526,-39.774 41.553,-43.601 0,-19.61" style="fill:white;fill-rule:nonzero;"/>
                </g>
            </g>
        </g>
    </g>
</svg>
