<svg width="212" height="148" viewBox="0 0 212 148" fill="none" xmlns="http://www.w3.org/2000/svg">
<path d="M25.829 118.469H20.4824V107.309L14.6354 118.469H11.227L5.34612 107.242V118.469H0V96.0818H5.41296L12.9312 109.948L20.449 96.0818H25.829V118.469Z" fill="#403F41"/>
<path d="M40.6285 113.208C41.4302 112.395 41.8317 111.353 41.8317 110.084C41.8317 108.814 41.4247 107.772 40.612 106.959C39.7988 106.147 38.8574 105.74 37.7883 105.74C36.6743 105.74 35.7054 106.147 34.8813 106.959C34.0571 107.772 33.645 108.814 33.645 110.084C33.645 111.353 34.0512 112.395 34.8647 113.208C35.6775 114.021 36.6523 114.428 37.7883 114.428C38.8798 114.428 39.8267 114.021 40.6285 113.208ZM44.3042 103.735C46.0863 105.384 46.9773 107.5 46.9773 110.084C46.9773 112.69 46.0863 114.817 44.3042 116.466C42.5218 118.114 40.3501 118.938 37.7883 118.938C35.1821 118.938 32.9824 118.114 31.189 116.466C29.3959 114.817 28.499 112.69 28.499 110.084C28.499 107.5 29.3959 105.384 31.189 103.735C32.9824 102.087 35.1821 101.262 37.7883 101.262C40.3501 101.262 42.5218 102.087 44.3042 103.735Z" fill="#403F41"/>
<path d="M60.837 113.21C61.6498 112.397 62.0567 111.355 62.0567 110.086C62.0567 108.838 61.6498 107.802 60.837 106.978C60.0238 106.154 59.0601 105.742 57.9465 105.742C56.7657 105.742 55.7972 106.148 55.0395 106.961C54.2821 107.774 53.9035 108.816 53.9035 110.086C53.9035 111.378 54.2821 112.425 55.0395 113.227C55.7972 114.028 56.7657 114.43 57.9465 114.43C59.0601 114.43 60.0238 114.023 60.837 113.21ZM67.4025 118.473H62.0567V117.136C60.6978 118.361 58.9602 118.974 56.8439 118.974C54.5715 118.974 52.6393 118.144 51.0468 116.484C49.4539 114.825 48.6572 112.692 48.6572 110.086C48.6572 107.502 49.4539 105.374 51.0468 103.703C52.6393 102.033 54.5715 101.198 56.8439 101.198C58.9602 101.198 60.6978 101.81 62.0567 103.035V94.4146H67.4025V118.473Z" fill="#403F41"/>
<path d="M82.3848 113.21C83.1976 112.397 83.6046 111.355 83.6046 110.085C83.6046 108.838 83.1976 107.802 82.3848 106.978C81.5717 106.154 80.6079 105.742 79.4943 105.742C78.3135 105.742 77.345 106.148 76.5873 106.961C75.83 107.774 75.4513 108.815 75.4513 110.085C75.4513 111.378 75.83 112.424 76.5873 113.226C77.345 114.028 78.3135 114.429 79.4943 114.429C80.6079 114.429 81.5717 114.022 82.3848 113.21ZM88.9503 118.472H83.6046V117.135C82.2456 118.361 80.508 118.973 78.3918 118.973C76.1194 118.973 74.1871 118.144 72.5946 116.484C71.0017 114.824 70.2051 112.692 70.2051 110.085C70.2051 107.501 71.0017 105.374 72.5946 103.703C74.1871 102.032 76.1194 101.197 78.3918 101.197C80.508 101.197 82.2456 101.81 83.6046 103.035V101.699H88.9503V118.472Z" fill="#403F41"/>
<path d="M122.936 110.083C122.424 112.845 121.143 115.018 119.094 116.599C117.044 118.181 114.56 118.972 111.642 118.972C108.323 118.972 105.511 117.847 103.205 115.597C100.9 113.347 99.7471 110.573 99.7471 107.277C99.7471 104.002 100.9 101.234 103.205 98.9736C105.511 96.7126 108.323 95.5822 111.642 95.5822C114.449 95.5822 116.894 96.3619 118.977 97.921C121.06 99.4801 122.368 101.563 122.903 104.169L117.49 105.439C117.156 103.857 116.471 102.66 115.435 101.847C114.399 101.034 113.135 100.627 111.642 100.627C109.86 100.627 108.351 101.262 107.115 102.532C105.878 103.801 105.26 105.383 105.26 107.277C105.26 109.17 105.878 110.757 107.115 112.038C108.351 113.319 109.86 113.959 111.642 113.959C113.113 113.959 114.366 113.542 115.401 112.707C116.437 111.871 117.144 110.64 117.523 109.014L122.936 110.083Z" fill="#403F41"/>
<path d="M131.835 106.243C131.166 106.71 130.71 107.357 130.465 108.181H137.381C137.136 107.312 136.713 106.655 136.112 106.209C135.51 105.764 134.808 105.541 134.006 105.541C133.227 105.541 132.503 105.775 131.835 106.243ZM142.661 111.455H130.364C130.587 112.458 131.021 113.248 131.667 113.828C132.314 114.407 133.082 114.696 133.973 114.696C135.644 114.696 136.836 114.05 137.548 112.758L142.293 113.727C141.58 115.465 140.505 116.774 139.068 117.654C137.632 118.534 135.933 118.973 133.973 118.973C131.5 118.973 129.406 118.144 127.691 116.484C125.976 114.824 125.118 112.691 125.118 110.085C125.118 107.501 125.976 105.374 127.691 103.703C129.406 102.032 131.511 101.197 134.006 101.197C136.434 101.197 138.473 102.01 140.121 103.636C141.77 105.263 142.616 107.412 142.661 110.085V111.455Z" fill="#403F41"/>
<path d="M160.496 103.119C161.688 104.4 162.284 106.087 162.284 108.181V118.472H156.971V109.317C156.971 108.337 156.704 107.54 156.169 106.928C155.635 106.315 154.944 106.009 154.098 106.009C153.006 106.009 152.154 106.393 151.541 107.162C150.929 107.93 150.622 109.106 150.622 110.687V118.472H145.276V101.699H150.622V103.303C151.959 101.899 153.674 101.197 155.768 101.197C157.729 101.197 159.305 101.838 160.496 103.119Z" fill="#403F41"/>
<path d="M178.345 117.734C176.808 118.558 175.282 118.97 173.767 118.97C171.651 118.97 170.008 118.402 168.839 117.266C167.669 116.13 167.084 114.47 167.084 112.287V105.938H164.044V101.695H167.084V96.7497H172.431V101.695H177.376V105.938H172.431V111.752C172.431 113.379 173.177 114.191 174.669 114.191C175.516 114.191 176.329 113.969 177.108 113.523L178.345 117.734Z" fill="#403F41"/>
<path d="M185.706 106.243C185.037 106.71 184.581 107.357 184.336 108.181H191.252C191.007 107.312 190.584 106.655 189.983 106.209C189.381 105.764 188.679 105.541 187.877 105.541C187.098 105.541 186.374 105.775 185.706 106.243ZM196.532 111.455H184.236C184.458 112.458 184.893 113.248 185.538 113.828C186.185 114.407 186.953 114.696 187.844 114.696C189.515 114.696 190.707 114.05 191.419 112.758L196.164 113.727C195.451 115.465 194.376 116.774 192.939 117.654C191.503 118.534 189.804 118.973 187.844 118.973C185.371 118.973 183.277 118.144 181.562 116.484C179.847 114.824 178.989 112.691 178.989 110.085C178.989 107.501 179.847 105.374 181.562 103.703C183.277 102.032 185.383 101.197 187.877 101.197C190.306 101.197 192.344 102.01 193.992 103.636C195.641 105.263 196.487 107.412 196.532 110.085V111.455Z" fill="#403F41"/>
<path d="M211.825 101.597L211.591 106.944H210.621C206.768 106.944 204.841 109.037 204.841 113.225V118.471H199.495V101.697H204.841V104.905C206.222 102.611 208.149 101.463 210.621 101.463C211.067 101.463 211.468 101.508 211.825 101.597Z" fill="#403F41"/>
<path d="M68.6391 140.673C69.8643 139.415 70.477 137.839 70.477 135.946C70.477 134.03 69.8643 132.437 68.6391 131.168C67.4142 129.898 65.8882 129.263 64.0613 129.263C62.2348 129.263 60.7092 129.898 59.4839 131.168C58.2587 132.437 57.646 134.03 57.646 135.946C57.646 137.839 58.2587 139.415 59.4839 140.673C60.7092 141.932 62.2348 142.562 64.0613 142.562C65.8882 142.562 67.4142 141.932 68.6391 140.673ZM72.5319 127.626C74.8377 129.898 75.9902 132.671 75.9902 135.946C75.9902 139.198 74.8377 141.955 72.5319 144.216C70.2265 146.477 67.4028 147.607 64.0613 147.607C60.7202 147.607 57.8969 146.477 55.5911 144.216C53.2857 141.955 52.1328 139.198 52.1328 135.946C52.1328 132.671 53.2857 129.898 55.5911 127.626C57.8969 125.354 60.7202 124.217 64.0613 124.217C67.4028 124.217 70.2265 125.354 72.5319 127.626Z" fill="#403F41"/>
<path d="M92.1527 127.523C91.5735 126.966 91.2841 126.253 91.2841 125.385C91.2841 124.538 91.579 123.82 92.1692 123.229C92.7598 122.639 93.5006 122.344 94.3913 122.344C95.2599 122.344 95.9897 122.645 96.5799 123.246C97.1705 123.847 97.4654 124.56 97.4654 125.385C97.4654 126.231 97.1756 126.938 96.5968 127.506C96.0176 128.074 95.2823 128.358 94.3913 128.358C93.4782 128.358 92.7319 128.08 92.1527 127.523ZM97.0643 147.103H91.7186V134.573H85.5703V147.103H80.2572V134.573H77.8516V130.33H80.2572V129.027C80.2572 127.067 80.8754 125.501 82.112 124.332C83.3479 123.162 85.0021 122.578 87.074 122.578C88.0983 122.578 89.112 122.767 90.1143 123.146L89.1458 127.356C88.5218 127.222 88.0763 127.155 87.8089 127.155C87.1408 127.155 86.6005 127.339 86.1884 127.707C85.776 128.074 85.5703 128.592 85.5703 129.261V130.33H97.0643V147.103Z" fill="#403F41"/>
<path d="M112.892 139.985L117.804 141.054C117.381 143.014 116.378 144.596 114.797 145.798C113.215 147.002 111.367 147.603 109.25 147.603C106.689 147.603 104.522 146.773 102.751 145.114C100.98 143.454 100.095 141.321 100.095 138.715C100.095 136.131 100.98 134.004 102.751 132.333C104.522 130.662 106.689 129.827 109.25 129.827C111.322 129.827 113.149 130.417 114.73 131.598C116.312 132.778 117.336 134.338 117.804 136.276L112.792 137.478C112.569 136.498 112.146 135.758 111.523 135.257C110.899 134.755 110.141 134.505 109.25 134.505C108.047 134.505 107.079 134.9 106.343 135.691C105.608 136.482 105.241 137.49 105.241 138.715C105.241 139.962 105.608 140.976 106.343 141.755C107.079 142.535 108.047 142.925 109.25 142.925C111.122 142.925 112.335 141.945 112.892 139.985Z" fill="#403F41"/>
<path d="M120.654 130.33H126V147.103H120.654V130.33ZM125.549 123.246C126.139 123.848 126.434 124.56 126.434 125.385C126.434 126.231 126.139 126.938 125.549 127.506C124.958 128.075 124.218 128.358 123.327 128.358C122.436 128.358 121.701 128.075 121.122 127.506C120.542 126.938 120.253 126.231 120.253 125.385C120.253 124.538 120.542 123.82 121.122 123.229C121.701 122.639 122.436 122.344 123.327 122.344C124.218 122.344 124.958 122.645 125.549 123.246Z" fill="#403F41"/>
<path d="M141.469 141.839C142.282 141.026 142.689 139.985 142.689 138.715C142.689 137.468 142.282 136.432 141.469 135.607C140.656 134.783 139.692 134.371 138.578 134.371C137.398 134.371 136.429 134.778 135.671 135.591C134.914 136.404 134.535 137.445 134.535 138.715C134.535 140.007 134.914 141.054 135.671 141.856C136.429 142.658 137.398 143.059 138.578 143.059C139.692 143.059 140.656 142.652 141.469 141.839ZM148.034 147.102H142.689V145.765C141.33 146.991 139.592 147.603 137.476 147.603C135.203 147.603 133.271 146.773 131.679 145.114C130.086 143.454 129.289 141.321 129.289 138.715C129.289 136.131 130.086 134.004 131.679 132.333C133.271 130.662 135.203 129.827 137.476 129.827C139.592 129.827 141.33 130.439 142.689 131.665V130.328H148.034V147.102Z" fill="#403F41"/>
<path d="M157.226 123.044H151.88V147.102H157.226V123.044Z" fill="#403F41"/>
<path d="M76.4609 56.4917C78.5748 56.2767 80.6903 56.1752 82.8007 56.1831C102.485 48.2708 117.059 30.3258 120.184 8.67625L105.152 0L90.3016 8.57126C93.224 13.6567 94.9003 19.5588 94.9003 25.8475C94.9003 39.1298 87.4276 50.662 76.4609 56.4917Z" fill="#287AA8"/>
<path d="M107.17 13.6437C107.17 8.8988 106.463 4.31905 105.155 0.00157499L105.152 0L90.3016 8.57126C93.224 13.6567 94.9002 19.5588 94.9002 25.8475C94.9002 39.1298 87.4276 50.6624 76.4609 56.4917C77.6378 56.3722 78.8155 56.2912 79.9924 56.2413C96.0417 48.7757 107.17 32.5105 107.17 13.6437Z" fill="#EE802A"/>
<path d="M115.417 24.7468C114.546 26.6849 113.576 28.568 112.514 30.3913C109.524 51.3944 117.778 72.9885 134.964 86.5197L149.994 77.84L149.996 60.6935C144.131 60.6817 138.182 59.182 132.736 56.0379C121.233 49.3965 114.982 37.1589 115.417 24.7468Z" fill="#EAB934"/>
<path d="M137.133 72.766C141.243 75.1386 145.562 76.8164 149.955 77.8416L149.958 77.8404L149.96 60.6939C144.095 60.6817 138.146 59.1824 132.699 56.0379C121.197 49.3969 114.945 37.1593 115.38 24.7468C114.895 25.8261 114.377 26.8862 113.831 27.9306C112.272 45.5627 120.794 63.3324 137.133 72.766Z" fill="#EE4330"/>
<path d="M123.397 74.4319C122.154 72.7089 121.008 70.9276 119.96 69.096C103.266 56.0052 80.4378 52.3562 60.126 60.474L60.1283 77.8305L74.9764 86.4057C77.9192 81.332 82.1927 76.9296 87.6387 73.7851C99.1413 67.1441 112.865 67.8492 123.397 74.4319Z" fill="#15A664"/>
<path d="M70.9326 69.2645C66.8232 71.6371 63.2107 74.5387 60.126 77.831V77.8338L74.9741 86.409C77.9169 81.3357 82.1903 76.9329 87.6363 73.7888C99.139 67.1474 112.863 67.8528 123.395 74.4352C122.703 73.4758 122.044 72.4963 121.412 71.5023C106.922 61.3357 87.2718 59.8309 70.9326 69.2645Z" fill="#D1D3D4"/>
</svg>
